<svg width="24" height="27" viewBox="0 0 24 27" fill="none" xmlns="http://www.w3.org/2000/svg">
<path d="M15.71 14.3834C16.6904 13.5421 17.406 12.3885 17.7572 11.083C18.1085 9.77754 18.0779 8.38511 17.6698 7.09945C17.2617 5.8138 16.4963 4.69885 15.4801 3.90972C14.4639 3.12059 13.2474 2.69653 12 2.69653C10.7525 2.69653 9.53611 3.12059 8.51993 3.90972C7.50374 4.69885 6.73834 5.8138 6.33021 7.09945C5.92208 8.38511 5.89151 9.77754 6.24276 11.083C6.59401 12.3885 7.3096 13.5421 8.29 14.3834C6.61007 15.1175 5.14428 16.335 4.04889 17.9061C2.95349 19.4773 2.26956 21.3432 2.07 23.3049C2.05555 23.4482 2.06711 23.5931 2.10402 23.7314C2.14093 23.8698 2.20246 23.9989 2.28511 24.1113C2.45202 24.3383 2.69478 24.4837 2.96 24.5156C3.22521 24.5474 3.49116 24.463 3.69932 24.2809C3.90749 24.0989 4.04082 23.8341 4.07 23.5449C4.28958 21.4129 5.22168 19.4438 6.68822 18.014C8.15475 16.5841 10.0529 15.7937 12.02 15.7937C13.9871 15.7937 15.8852 16.5841 17.3518 18.014C18.8183 19.4438 19.7504 21.4129 19.97 23.5449C19.9972 23.8129 20.1144 24.0604 20.2991 24.2396C20.4838 24.4189 20.7228 24.5172 20.97 24.5156H21.08C21.3421 24.4827 21.5817 24.3381 21.7466 24.1134C21.9114 23.8887 21.9881 23.602 21.96 23.3158C21.7595 21.3485 21.0719 19.4778 19.9708 17.9043C18.8698 16.3307 17.3969 15.1136 15.71 14.3834ZM12 13.609C11.2089 13.609 10.4355 13.3532 9.77772 12.8738C9.11992 12.3944 8.60723 11.7131 8.30448 10.9159C8.00173 10.1188 7.92251 9.2416 8.07686 8.39534C8.2312 7.54907 8.61216 6.77173 9.17157 6.16161C9.73098 5.55149 10.4437 5.13599 11.2196 4.96766C11.9956 4.79932 12.7998 4.88572 13.5307 5.21591C14.2616 5.54611 14.8863 6.10528 15.3259 6.8227C15.7654 7.54013 16 8.38359 16 9.24644C16 10.4035 15.5786 11.5131 14.8284 12.3313C14.0783 13.1494 13.0609 13.609 12 13.609Z" fill="currentColor"/>
</svg>
