<svg width="24" height="27" viewBox="0 0 24 27" fill="none" xmlns="http://www.w3.org/2000/svg">
<path d="M20.0325 22.3968H3.96753C3.12246 22.3957 2.31228 22.0291 1.71472 21.3774C1.11717 20.7256 0.781022 19.842 0.780029 18.9203V8.43373C0.781022 7.51205 1.11717 6.62843 1.71472 5.9767C2.31228 5.32497 3.12246 4.95836 3.96753 4.95728H20.0325C20.8776 4.95836 21.6878 5.32497 22.2853 5.9767C22.8829 6.62843 23.219 7.51205 23.22 8.43373V18.9203C23.219 19.842 22.8829 20.7256 22.2853 21.3774C21.6878 22.0291 20.8776 22.3957 20.0325 22.3968ZM3.96753 6.18426C3.42052 6.18426 2.89592 6.42126 2.50912 6.84311C2.12233 7.26497 1.90503 7.83713 1.90503 8.43373V18.9203C1.90503 19.5169 2.12233 20.0891 2.50912 20.511C2.89592 20.9328 3.42052 21.1698 3.96753 21.1698H20.0325C20.5795 21.1698 21.1041 20.9328 21.4909 20.511C21.8777 20.0891 22.095 19.5169 22.095 18.9203V8.43373C22.095 7.83713 21.8777 7.26497 21.4909 6.84311C21.1041 6.42126 20.5795 6.18426 20.0325 6.18426H3.96753Z" fill="currentColor"/>
<path d="M12 16.1637C11.3061 16.1649 10.6307 15.9194 10.0762 15.4643L1.31999 8.2415C1.25812 8.19415 1.20564 8.13368 1.16568 8.06371C1.12572 7.99374 1.09909 7.9157 1.0874 7.83426C1.07571 7.75282 1.07918 7.66964 1.09762 7.5897C1.11606 7.50975 1.14908 7.43468 1.19471 7.36896C1.24034 7.30325 1.29765 7.24824 1.36321 7.20721C1.42877 7.16619 1.50123 7.14 1.57628 7.1302C1.65133 7.12041 1.72742 7.12721 1.8 7.1502C1.87259 7.17319 1.94018 7.21189 1.99874 7.26401L10.755 14.495C11.1146 14.7878 11.5513 14.946 12 14.946C12.4487 14.946 12.8854 14.7878 13.245 14.495L22.0012 7.26401C22.0598 7.21189 22.1274 7.17319 22.2 7.1502C22.2726 7.12721 22.3486 7.12041 22.4237 7.1302C22.4987 7.14 22.5712 7.16619 22.6368 7.20721C22.7023 7.24824 22.7596 7.30325 22.8053 7.36896C22.8509 7.43468 22.8839 7.50975 22.9024 7.5897C22.9208 7.66964 22.9243 7.75282 22.9126 7.83426C22.9009 7.9157 22.8743 7.99374 22.8343 8.06371C22.7943 8.13368 22.7419 8.19415 22.68 8.2415L13.9237 15.4643C13.3693 15.9194 12.6939 16.1649 12 16.1637Z" fill="currentColor  "/>
<path d="M1.56375 20.6872C1.44967 20.6874 1.33823 20.6498 1.24422 20.5793C1.15022 20.5088 1.07809 20.4087 1.03741 20.2925C0.996724 20.1763 0.989414 20.0493 1.01644 19.9284C1.04348 19.8075 1.10357 19.6984 1.18875 19.6157L8.08875 12.9041C8.20014 12.7956 8.34648 12.7398 8.49557 12.749C8.64466 12.7582 8.7843 12.8317 8.88375 12.9531C8.98321 13.0746 9.03434 13.2342 9.0259 13.3968C9.01746 13.5595 8.95014 13.7117 8.83875 13.8202L1.93875 20.5318C1.83628 20.6335 1.70228 20.689 1.56375 20.6872ZM22.4363 20.6872C22.2977 20.689 22.1637 20.6335 22.0613 20.5318L15.1613 13.8202C15.0499 13.7117 14.9825 13.5595 14.9741 13.3968C14.9657 13.2342 15.0168 13.0746 15.1163 12.9531C15.2157 12.8317 15.3553 12.7582 15.5044 12.749C15.6535 12.7398 15.7999 12.7956 15.9113 12.9041L22.8075 19.6157C22.8927 19.6984 22.9528 19.8075 22.9798 19.9284C23.0068 20.0493 22.9995 20.1763 22.9589 20.2925C22.9182 20.4087 22.846 20.5088 22.752 20.5793C22.658 20.6498 22.5466 20.6874 22.4325 20.6872H22.4363Z" fill="currentColor"/>
</svg>
