<svg width="15" height="15" viewBox="0 0 15 15" fill="none" xmlns="http://www.w3.org/2000/svg">
<path d="M1.87193 15C1.66339 15 1.49414 14.8507 1.49414 14.6667V9.18587C1.49414 9.00187 1.66339 8.85254 1.87193 8.85254C2.08046 8.85254 2.24971 9.00187 2.24971 9.18587V14.6667C2.24971 14.8507 2.08065 15 1.87193 15Z" fill="#696969"/>
<path d="M13.128 9.89283C12.9195 9.89283 12.7503 9.7435 12.7503 9.5595V0.333333C12.7503 0.149333 12.9195 0 13.128 0C13.3366 0 13.5058 0.149333 13.5058 0.333333V9.5595C13.5058 9.74367 13.3366 9.89283 13.128 9.89283Z" fill="#696969"/>
<path d="M7.49998 15C7.29144 15 7.12219 14.8506 7.12219 14.6666V4.65365C7.12219 4.46965 7.29144 4.32031 7.49998 4.32031C7.70852 4.32031 7.87776 4.46965 7.87776 4.65365V14.6666C7.87776 14.8506 7.70852 15 7.49998 15Z" fill="#696969"/>
<path d="M7.50004 4.98693C6.46793 4.98693 5.62811 4.24609 5.62811 3.33526C5.62811 2.42443 6.46774 1.68359 7.50004 1.68359C8.53234 1.68359 9.37197 2.42443 9.37197 3.33526C9.37197 4.24609 8.53234 4.98693 7.50004 4.98693ZM7.50004 2.35043C6.88444 2.35043 6.38369 2.79226 6.38369 3.33543C6.38369 3.87859 6.88444 4.32043 7.50004 4.32043C8.11565 4.32043 8.6164 3.87859 8.6164 3.33543C8.6164 2.79226 8.11565 2.35043 7.50004 2.35043Z" fill="#696969"/>
<path d="M1.87193 9.51915C0.839819 9.51915 0 8.77832 0 7.86749C0 6.95682 0.83963 6.21582 1.87193 6.21582C2.90423 6.21582 3.74386 6.95665 3.74386 7.86749C3.74386 8.77832 2.90404 9.51915 1.87193 9.51915ZM1.87193 6.88249C1.25633 6.88249 0.755572 7.32432 0.755572 7.86749C0.755572 8.41065 1.25633 8.85249 1.87193 8.85249C2.48753 8.85249 2.98829 8.41065 2.98829 7.86749C2.98829 7.32432 2.48753 6.88249 1.87193 6.88249Z" fill="#696969"/>
<path d="M13.1281 12.5295C12.096 12.5295 11.2563 11.7887 11.2563 10.8778C11.2563 9.96715 12.096 9.22632 13.1281 9.22632C14.1604 9.22632 15 9.96715 15 10.8778C15 11.7885 14.1604 12.5295 13.1281 12.5295ZM13.1281 9.89282C12.5125 9.89282 12.0119 10.3345 12.0119 10.8777C12.0119 11.4208 12.5125 11.8627 13.1281 11.8627C13.7437 11.8627 14.2444 11.4208 14.2444 10.8777C14.2444 10.3345 13.7437 9.89282 13.1281 9.89282Z" fill="#696969"/>
<path d="M1.87193 6.8825C1.66339 6.8825 1.49414 6.73317 1.49414 6.54917V0.333333C1.49414 0.149333 1.66339 0 1.87193 0C2.08046 0 2.24971 0.149333 2.24971 0.333333V6.54917C2.24971 6.73333 2.08065 6.8825 1.87193 6.8825Z" fill="#696969"/>
<path d="M7.49996 2.3505C7.29142 2.3505 7.12217 2.20117 7.12217 2.01717V0.333333C7.12217 0.149333 7.29142 0 7.49996 0C7.7085 0 7.87775 0.149333 7.87775 0.333333V2.01717C7.87775 2.20117 7.7085 2.3505 7.49996 2.3505Z" fill="#696969"/>
<path d="M13.128 15C12.9195 15 12.7502 14.8506 12.7502 14.6666V12.1961C12.7502 12.0121 12.9195 11.8628 13.128 11.8628C13.3366 11.8628 13.5058 12.0121 13.5058 12.1961V14.6666C13.5058 14.8506 13.3366 15 13.128 15Z" fill="#696969"/>
</svg>
