<svg width="24" height="27" viewBox="0 0 24 27" fill="none" xmlns="http://www.w3.org/2000/svg">
<path d="M18.052 16.6102C18.138 16.7564 18.262 16.8698 18.405 16.944C18.9577 17.233 19.4243 17.6866 19.7507 18.2524C20.0772 18.8183 20.2503 19.4732 20.25 20.1418V22.3231C20.25 22.54 20.329 22.7481 20.4697 22.9015C20.6103 23.0549 20.8011 23.1411 21 23.1411C21.1989 23.1411 21.3897 23.0549 21.5303 22.9015C21.671 22.7481 21.75 22.54 21.75 22.3231V20.1418C21.75 18.7678 21.2496 17.4501 20.3588 16.4785C19.468 15.507 18.2598 14.9612 17 14.9612C16.891 14.9612 16.842 15.1139 16.924 15.1913C17.3603 15.603 17.7402 16.0809 18.052 16.6102Z" fill="currentColor"/>
<path fill-rule="evenodd" clip-rule="evenodd" d="M7 16.5972C6.13805 16.5972 5.3114 16.9706 4.7019 17.6354C4.09241 18.3001 3.75 19.2017 3.75 20.1418V22.3231C3.75 22.54 3.67098 22.7481 3.53033 22.9015C3.38968 23.0549 3.19891 23.1411 3 23.1411C2.80109 23.1411 2.61032 23.0549 2.46967 22.9015C2.32902 22.7481 2.25 22.54 2.25 22.3231V20.1418C2.25 18.7678 2.75044 17.4501 3.64124 16.4785C4.53204 15.507 5.74022 14.9612 7 14.9612H13C14.2598 14.9612 15.468 15.507 16.3588 16.4785C17.2496 17.4501 17.75 18.7678 17.75 20.1418V22.3231C17.75 22.54 17.671 22.7481 17.5303 22.9015C17.3897 23.0549 17.1989 23.1411 17 23.1411C16.8011 23.1411 16.6103 23.0549 16.4697 22.9015C16.329 22.7481 16.25 22.54 16.25 22.3231V20.1418C16.25 19.2017 15.9076 18.3001 15.2981 17.6354C14.6886 16.9706 13.862 16.5972 13 16.5972H7Z" fill="currentColor"/>
<path d="M14.87 10.9334C14.96 10.7491 15.1 10.6018 15.266 10.4971C15.6425 10.2569 15.9548 9.91331 16.1719 9.50059C16.3889 9.08787 16.5031 8.62037 16.5031 8.14459C16.5031 7.66881 16.3889 7.20131 16.1719 6.78859C15.9548 6.37587 15.6425 6.0323 15.266 5.79205C15.0994 5.68955 14.9623 5.53849 14.87 5.35579C14.6225 4.84275 14.3082 4.37144 13.937 3.95649C13.88 3.89105 13.917 3.78198 14 3.78198C15.0609 3.78198 16.0783 4.24161 16.8284 5.05976C17.5786 5.87791 18 6.98755 18 8.14459C18 9.30162 17.5786 10.4113 16.8284 11.2294C16.0783 12.0476 15.0609 12.5072 14 12.5072C13.917 12.5072 13.88 12.3981 13.937 12.3327C14.307 11.9204 14.622 11.4493 14.87 10.9334Z" fill="currentColor"/>
<path fill-rule="evenodd" clip-rule="evenodd" d="M10 10.8712C10.663 10.8712 11.2989 10.5839 11.7678 10.0726C12.2366 9.56126 12.5 8.86774 12.5 8.14459C12.5 7.42144 12.2366 6.72791 11.7678 6.21657C11.2989 5.70523 10.663 5.41796 10 5.41796C9.33696 5.41796 8.70107 5.70523 8.23223 6.21657C7.76339 6.72791 7.5 7.42144 7.5 8.14459C7.5 8.86774 7.76339 9.56126 8.23223 10.0726C8.70107 10.5839 9.33696 10.8712 10 10.8712ZM10 12.5072C11.0609 12.5072 12.0783 12.0476 12.8284 11.2294C13.5786 10.4113 14 9.30162 14 8.14459C14 6.98755 13.5786 5.87791 12.8284 5.05976C12.0783 4.24161 11.0609 3.78198 10 3.78198C8.93913 3.78198 7.92172 4.24161 7.17157 5.05976C6.42143 5.87791 6 6.98755 6 8.14459C6 9.30162 6.42143 10.4113 7.17157 11.2294C7.92172 12.0476 8.93913 12.5072 10 12.5072Z" fill="currentColor"/>
</svg>
