<svg width="24" height="27" viewBox="0 0 24 27" fill="none" xmlns="http://www.w3.org/2000/svg">
<path d="M13.586 23.4785C13.6324 23.5292 13.6875 23.5694 13.7481 23.5968C13.8088 23.6242 13.8738 23.6383 13.9395 23.6383C14.0051 23.6383 14.0701 23.6242 14.1308 23.5968C14.1914 23.5694 14.2466 23.5292 14.293 23.4785L14.5 23.2528V23.5723C14.5 23.7169 14.5527 23.8556 14.6465 23.9579C14.7402 24.0602 14.8674 24.1176 15 24.1176C15.1326 24.1176 15.2598 24.0602 15.3536 23.9579C15.4473 23.8556 15.5 23.7169 15.5 23.5723V23.2528L15.7071 23.4785C15.8014 23.5779 15.9277 23.6328 16.0588 23.6316C16.1899 23.6304 16.3153 23.573 16.408 23.4719C16.5007 23.3708 16.5533 23.234 16.5544 23.091C16.5555 22.9481 16.5051 22.8103 16.4141 22.7075L15.7071 21.9363L16.4141 21.1652C16.5051 21.0623 16.5555 20.9246 16.5544 20.7816C16.5533 20.6386 16.5007 20.5018 16.408 20.4007C16.3153 20.2996 16.1899 20.2423 16.0588 20.241C15.9277 20.2398 15.8014 20.2947 15.7071 20.3941L15.5 20.6198V20.3003C15.5 20.1557 15.4473 20.017 15.3536 19.9147C15.2598 19.8125 15.1326 19.755 15 19.755C14.8674 19.755 14.7402 19.8125 14.6465 19.9147C14.5527 20.017 14.5 20.1557 14.5 20.3003V20.6198L14.293 20.3941C14.1987 20.2947 14.0724 20.2398 13.9413 20.241C13.8102 20.2423 13.6848 20.2996 13.5921 20.4007C13.4994 20.5018 13.4468 20.6386 13.4456 20.7816C13.4445 20.9246 13.4949 21.0623 13.586 21.1652L14.293 21.9363L13.586 22.7075C13.4922 22.8097 13.4396 22.9484 13.4396 23.093C13.4396 23.2376 13.4922 23.3763 13.586 23.4785ZM18.086 23.4785C18.1324 23.5292 18.1875 23.5694 18.2481 23.5968C18.3088 23.6242 18.3738 23.6383 18.4395 23.6383C18.5051 23.6383 18.5701 23.6242 18.6308 23.5968C18.6915 23.5694 18.7466 23.5292 18.793 23.4785L19 23.2528V23.5723C19 23.7169 19.0527 23.8556 19.1465 23.9579C19.2402 24.0602 19.3674 24.1176 19.5 24.1176C19.6326 24.1176 19.7598 24.0602 19.8536 23.9579C19.9473 23.8556 20 23.7169 20 23.5723V23.2528L20.2071 23.4785C20.3014 23.5779 20.4277 23.6328 20.5588 23.6316C20.6899 23.6304 20.8153 23.573 20.908 23.4719C21.0007 23.3708 21.0533 23.234 21.0544 23.091C21.0555 22.9481 21.0051 22.8103 20.9141 22.7075L20.2071 21.9363L20.9141 21.1652C21.0051 21.0623 21.0555 20.9246 21.0544 20.7816C21.0533 20.6386 21.0007 20.5018 20.908 20.4007C20.8153 20.2996 20.6899 20.2423 20.5588 20.241C20.4277 20.2398 20.3014 20.2947 20.2071 20.3941L20 20.6198V20.3003C20 20.1557 19.9473 20.017 19.8536 19.9147C19.7598 19.8125 19.6326 19.755 19.5 19.755C19.3674 19.755 19.2402 19.8125 19.1465 19.9147C19.0527 20.017 19 20.1557 19 20.3003V20.6198L18.793 20.3941C18.6987 20.2947 18.5724 20.2398 18.4413 20.241C18.3102 20.2423 18.1848 20.2996 18.0921 20.4007C17.9994 20.5018 17.9468 20.6386 17.9456 20.7816C17.9445 20.9246 17.9949 21.0623 18.086 21.1652L18.793 21.9363L18.086 22.7075C17.9922 22.8097 17.9396 22.9484 17.9396 23.093C17.9396 23.2376 17.9922 23.3763 18.086 23.4785ZM9.08597 23.4785C9.13238 23.5292 9.18749 23.5694 9.24814 23.5968C9.3088 23.6242 9.37381 23.6383 9.43947 23.6383C9.50513 23.6383 9.57014 23.6242 9.63079 23.5968C9.69145 23.5694 9.74656 23.5292 9.79297 23.4785L10 23.2528V23.5723C10 23.7169 10.0527 23.8556 10.1465 23.9579C10.2402 24.0602 10.3674 24.1176 10.5 24.1176C10.6326 24.1176 10.7598 24.0602 10.8536 23.9579C10.9473 23.8556 11 23.7169 11 23.5723V23.2528L11.2071 23.4785C11.3014 23.5779 11.4277 23.6328 11.5588 23.6316C11.6899 23.6304 11.8153 23.573 11.908 23.4719C12.0007 23.3708 12.0533 23.234 12.0544 23.091C12.0555 22.9481 12.0051 22.8103 11.9141 22.7075L11.2071 21.9363L11.9141 21.1652C12.0051 21.0623 12.0555 20.9246 12.0544 20.7816C12.0533 20.6386 12.0007 20.5018 11.908 20.4007C11.8153 20.2996 11.6899 20.2423 11.5588 20.241C11.4277 20.2398 11.3014 20.2947 11.2071 20.3941L11 20.6198V20.3003C11 20.1557 10.9473 20.017 10.8536 19.9147C10.7598 19.8125 10.6326 19.755 10.5 19.755C10.3674 19.755 10.2402 19.8125 10.1465 19.9147C10.0527 20.017 10 20.1557 10 20.3003V20.6198L9.79297 20.3941C9.69867 20.2947 9.57237 20.2398 9.44127 20.241C9.31017 20.2423 9.18476 20.2996 9.09206 20.4007C8.99936 20.5018 8.94677 20.6386 8.94563 20.7816C8.94449 20.9246 8.99489 21.0623 9.08597 21.1652L9.79297 21.9363L9.08597 22.7075C8.99223 22.8097 8.93958 22.9484 8.93958 23.093C8.93958 23.2376 8.99223 23.3763 9.08597 23.4785Z" fill="currentColor"/>
<path d="M22 18.119H17V10.4845C16.9994 9.90616 16.7886 9.35169 16.4136 8.94275C16.0386 8.5338 15.5303 8.30379 15 8.30319H14V5.57656C13.9989 4.56451 13.6298 3.59425 12.9737 2.87862C12.3175 2.163 11.4279 1.76045 10.5 1.75928H7.5C6.57207 1.76045 5.68246 2.163 5.02631 2.87862C4.37016 3.59425 4.00107 4.56451 4 5.57656V8.30319H3C2.46974 8.30379 1.96135 8.5338 1.5864 8.94275C1.21145 9.35169 1.00056 9.90616 1 10.4845V21.391C1.00052 21.9693 1.2114 22.5238 1.58636 22.9328C1.96132 23.3417 2.46973 23.5717 3 23.5723H7V24.663C7.00036 24.9521 7.10583 25.2293 7.29329 25.4337C7.48075 25.6382 7.73489 25.7532 8 25.7536H22C22.2651 25.7532 22.5193 25.6382 22.7067 25.4337C22.8942 25.2293 22.9996 24.9521 23 24.663V19.2097C22.9996 18.9206 22.8942 18.6434 22.7067 18.4389C22.5193 18.2345 22.2651 18.1194 22 18.119ZM5 5.57656C5.00078 4.85367 5.26442 4.16064 5.7331 3.64948C6.20177 3.13832 6.8372 2.85078 7.5 2.84993H10.5C11.1628 2.85078 11.7982 3.13832 12.2669 3.64948C12.7356 4.16064 12.9992 4.85367 13 5.57656V8.30319H5V5.57656ZM3 22.4817C2.73489 22.4813 2.48075 22.3662 2.29329 22.1618C2.10583 21.9573 2.00036 21.6801 2 21.391V10.4845C2.0003 10.1953 2.10576 9.91811 2.29323 9.71365C2.4807 9.50918 2.73488 9.39417 3 9.39384H15C15.2651 9.39417 15.5193 9.50918 15.7068 9.71365C15.8942 9.91811 15.9997 10.1953 16 10.4845V18.119H8C7.73489 18.1194 7.48075 18.2345 7.29329 18.4389C7.10583 18.6434 7.00036 18.9206 7 19.2097V22.4817H3ZM22 24.663H8V19.2097L22 19.2113V24.663Z" fill="currentColor"/>
</svg>
