<svg width="15" height="15" viewBox="0 0 15 15" fill="none" xmlns="http://www.w3.org/2000/svg">
<path d="M1.76868 10.3054C2.80782 11.3457 4.19163 11.9702 5.65942 12.0613C7.1272 12.1524 8.57764 11.7037 9.73747 10.7998L13.7282 14.7894C13.8698 14.9261 14.0593 15.0017 14.2561 15C14.4529 14.9983 14.6411 14.9194 14.7802 14.7803C14.9193 14.6412 14.9983 14.453 15 14.2563C15.0017 14.0596 14.926 13.8701 14.7893 13.7286L10.7986 9.73901C11.7428 8.52755 12.1893 7.00161 12.0468 5.47241C11.9044 3.9432 11.1838 2.52591 10.032 1.50958C8.88022 0.493249 7.384 -0.0455656 5.8485 0.00302207C4.313 0.0516098 2.85386 0.68394 1.76868 1.77105C1.20796 2.33133 0.763152 2.99655 0.459676 3.72873C0.1562 4.46091 0 5.24569 0 6.03824C0 6.83078 0.1562 7.61556 0.459676 8.34774C0.763152 9.07992 1.20796 9.74515 1.76868 10.3054ZM2.82978 2.83335C3.57164 2.09173 4.54775 1.6302 5.59183 1.52738C6.6359 1.42457 7.68333 1.68684 8.55567 2.26951C9.428 2.85218 10.0713 3.71919 10.3759 4.72283C10.6805 5.72648 10.6275 6.80465 10.2261 7.77366C9.8247 8.74267 9.09963 9.54257 8.17442 10.0371C7.24922 10.5316 6.18114 10.69 5.15215 10.4855C4.12316 10.281 3.19692 9.7262 2.53126 8.91554C1.8656 8.10487 1.50168 7.08855 1.50153 6.03974C1.49947 5.44375 1.61582 4.85329 1.84383 4.30262C2.07184 3.75194 2.40698 3.25202 2.82978 2.83185V2.83335Z" fill="#696969"/>
</svg>
