<svg width="62" height="62" viewBox="0 0 62 62" fill="none" xmlns="http://www.w3.org/2000/svg">
<path d="M46 26.9999C45.2005 26.9967 44.4191 27.2375 43.76 27.6899C43.4888 26.9075 42.9815 26.2285 42.308 25.7467C41.6345 25.2649 40.8281 25.004 40 24.9999C39.2005 24.9967 38.4191 25.2375 37.76 25.6899C37.4888 24.9075 36.9815 24.2285 36.308 23.7467C35.6345 23.2649 34.8281 23.004 34 22.9999C33.2951 23.0029 32.604 23.1964 32 23.5599V13.9999C32.0004 13.4057 31.8685 12.8188 31.6137 12.282C31.3589 11.7451 30.9876 11.2718 30.527 10.8964C30.0663 10.5209 29.5278 10.2529 28.9506 10.1117C28.3734 9.97044 27.7719 9.95961 27.19 10.0799C26.2709 10.2871 25.4514 10.8052 24.8702 11.5468C24.2889 12.2884 23.9816 13.2079 24 14.1499V37.3399L21.26 34.2099C20.4126 33.2484 19.2284 32.6491 17.9518 32.5355C16.6752 32.422 15.4038 32.8031 14.4 33.5999L13.7 34.1599C13.1301 34.6009 12.7433 35.2369 12.6141 35.9458C12.4849 36.6547 12.6223 37.3863 13 37.9999L20.13 49.4999C21.499 52.004 23.4996 54.1061 25.9329 55.5973C28.3661 57.0885 31.1474 57.9169 34 57.9999C38.2435 57.9999 42.3131 56.3142 45.3137 53.3137C48.3143 50.3131 50 46.2434 50 41.9999V30.9999C50 29.9391 49.5786 28.9217 48.8284 28.1715C48.0783 27.4214 47.0609 26.9999 46 26.9999ZM34 55.9999C31.4946 55.916 29.0548 55.1777 26.9233 53.8584C24.7917 52.5392 23.0427 50.6849 21.85 48.4799L14.74 36.9199C14.6248 36.7281 14.5826 36.5012 14.6212 36.2808C14.6597 36.0604 14.7765 35.8612 14.95 35.7199L15.65 35.1599C16.2524 34.6841 17.0142 34.4572 17.7787 34.526C18.5433 34.5949 19.2523 34.9541 19.76 35.5299L24.25 40.6599C24.3843 40.8122 24.5617 40.92 24.7587 40.969C24.9557 41.0179 25.163 41.0058 25.3529 40.9342C25.5428 40.8625 25.7065 40.7348 25.8221 40.5679C25.9377 40.401 25.9997 40.2029 26 39.9999V14.1499C25.9773 13.6648 26.1218 13.1866 26.4094 12.7952C26.697 12.4039 27.1102 12.1231 27.58 11.9999C27.8754 11.9364 28.1813 11.9406 28.4748 12.0123C28.7683 12.0839 29.0417 12.2211 29.2746 12.4136C29.5075 12.606 29.6937 12.8488 29.8194 13.1235C29.945 13.3983 30.0068 13.6979 30 13.9999V33.9999C30 34.2652 30.1054 34.5195 30.2929 34.707C30.4804 34.8946 30.7348 34.9999 31 34.9999C31.2652 34.9999 31.5196 34.8946 31.7071 34.707C31.8947 34.5195 32 34.2652 32 33.9999V26.9999C32 26.4695 32.2107 25.9608 32.5858 25.5857C32.9609 25.2107 33.4696 24.9999 34 24.9999C34.5304 24.9999 35.0392 25.2107 35.4142 25.5857C35.7893 25.9608 36 26.4695 36 26.9999V33.9999C36 34.2652 36.1054 34.5195 36.2929 34.707C36.4804 34.8946 36.7348 34.9999 37 34.9999C37.2652 34.9999 37.5196 34.8946 37.7071 34.707C37.8947 34.5195 38 34.2652 38 33.9999V28.9999C38 28.4695 38.2107 27.9608 38.5858 27.5857C38.9609 27.2107 39.4696 26.9999 40 26.9999C40.5304 26.9999 41.0392 27.2107 41.4142 27.5857C41.7893 27.9608 42 28.4695 42 28.9999V33.9999C42 34.2652 42.1054 34.5195 42.2929 34.707C42.4804 34.8946 42.7348 34.9999 43 34.9999C43.2652 34.9999 43.5196 34.8946 43.7071 34.707C43.8947 34.5195 44 34.2652 44 33.9999V30.9999C44 30.4695 44.2107 29.9608 44.5858 29.5857C44.9609 29.2107 45.4696 28.9999 46 28.9999C46.5304 28.9999 47.0392 29.2107 47.4142 29.5857C47.7893 29.9608 48 30.4695 48 30.9999V41.9999C48 45.713 46.525 49.2739 43.8995 51.8994C41.274 54.5249 37.713 55.9999 34 55.9999Z" fill="#8F8F8F"/>
<path d="M13.71 18.7101L16 16.4201V28.0001C16 28.2653 16.1054 28.5197 16.2929 28.7072C16.4804 28.8947 16.7348 29.0001 17 29.0001C17.2652 29.0001 17.5196 28.8947 17.7071 28.7072C17.8946 28.5197 18 28.2653 18 28.0001V16.4101L20.29 18.7101C20.383 18.8038 20.4936 18.8782 20.6154 18.929C20.7373 18.9797 20.868 19.0059 21 19.0059C21.132 19.0059 21.2627 18.9797 21.3846 18.929C21.5064 18.8782 21.617 18.8038 21.71 18.7101C21.8037 18.6171 21.8781 18.5065 21.9289 18.3847C21.9797 18.2628 22.0058 18.1321 22.0058 18.0001C22.0058 17.8681 21.9797 17.7374 21.9289 17.6155C21.8781 17.4937 21.8037 17.3831 21.71 17.2901L17 12.5901L12.29 17.2901C12.1017 17.4784 11.9959 17.7338 11.9959 18.0001C11.9959 18.2664 12.1017 18.5218 12.29 18.7101C12.4783 18.8984 12.7337 19.0042 13 19.0042C13.2663 19.0042 13.5217 18.8984 13.71 18.7101Z" fill="#8F8F8F"/>
</svg>
