<svg width="27" height="27" viewBox="0 0 27 27" fill="none" xmlns="http://www.w3.org/2000/svg">
<path d="M17.0543 1.17062C16.6641 1.31827 17.6449 0.358508 6.77109 11.1691C0.632813 17.2651 1.0336 16.8222 1.07578 17.5183C1.08633 17.7398 1.13906 17.9401 1.21289 18.0773C1.33945 18.3198 2.90039 19.9335 3.13242 20.0601C3.33281 20.1655 3.5332 20.1234 3.88125 19.8808C4.80938 19.2796 5.77969 19.2901 6.60234 19.9124C7.2457 20.3976 7.5832 21.1569 7.51992 21.948C7.48828 22.3698 7.36172 22.7284 7.09805 23.0976C6.87656 23.4245 6.83438 23.5511 6.87656 23.7515C6.91875 23.9413 8.54297 25.5655 8.86992 25.7448C9.09141 25.8714 9.16524 25.8819 9.53438 25.8819C9.90352 25.8819 9.97735 25.8714 10.2094 25.7343C10.5258 25.5444 25.6184 10.4835 25.8188 10.146C25.9348 9.95616 25.9453 9.87179 25.9453 9.53429C25.9453 9.21788 25.9242 9.10187 25.8293 8.92257C25.7027 8.67999 24.1313 7.05577 23.9098 6.93976C23.7199 6.83429 23.509 6.87648 23.1926 7.09796C22.4754 7.57257 21.6316 7.63585 20.8723 7.27726C20.7246 7.21398 20.4609 7.02413 20.2922 6.86593C19.4695 6.08546 19.3219 4.87257 19.9441 3.9128C20.1762 3.55421 20.2184 3.35382 20.1234 3.15343C19.9969 2.9214 18.3832 1.36046 18.1406 1.2339C17.8664 1.10734 17.318 1.06515 17.0543 1.17062ZM17.666 2.13038C17.7293 2.16202 18.0563 2.46788 18.4043 2.81593L19.0371 3.44874L18.8789 3.76515C18.4254 4.70382 18.4465 5.81124 18.9422 6.77101C19.2059 7.2878 19.8281 7.88898 20.366 8.15265C20.925 8.42687 21.2625 8.51124 21.8531 8.51124C22.4121 8.51124 22.8023 8.42687 23.298 8.19484L23.625 8.03663L24.2367 8.64835C24.9117 9.3128 25.0066 9.44991 24.9434 9.62921C24.9223 9.69249 24.2789 10.3569 23.5195 11.1163C22.4438 12.1921 22.1273 12.4769 22.0746 12.4452C22.0324 12.4241 21.9164 12.3925 21.8215 12.3925C21.4734 12.3925 21.2414 12.7827 21.3996 13.078C21.4523 13.173 20.9461 13.6898 15.5988 19.037C11.5383 23.0976 9.71367 24.8905 9.61875 24.9116C9.41836 24.9538 9.26016 24.8483 8.6168 24.1944L8.01563 23.5933L8.16328 23.298C8.40586 22.8128 8.52188 22.3171 8.52188 21.7581C8.52188 21.178 8.4375 20.8194 8.17383 20.3026C7.83633 19.6171 7.35117 19.1319 6.63399 18.7944C6.11719 18.5413 5.7586 18.4675 5.19961 18.4675C4.70391 18.4675 4.29258 18.573 3.77578 18.805L3.3961 18.9843L2.78438 18.3726C2.11992 17.7187 2.01445 17.5605 2.05664 17.3601C2.07774 17.2651 3.78633 15.5355 7.95235 11.4011C12.6035 6.77101 13.827 5.57921 13.9008 5.61085C13.943 5.63194 14.059 5.65304 14.1539 5.66359C14.3965 5.69523 14.6391 5.47374 14.6391 5.22062C14.6391 5.12569 14.618 5.00968 14.5969 4.95694C14.5547 4.89366 14.7867 4.64054 15.9152 3.51202C16.6641 2.76319 17.318 2.13038 17.3602 2.11984C17.4762 2.0671 17.55 2.0671 17.666 2.13038Z" fill="currentColor"/>
<path d="M15.2191 6.26484C15.0609 6.43359 15.0398 6.62344 15.1453 6.83438C15.2191 6.97148 15.7992 7.56211 15.9996 7.68867C16.1895 7.81523 16.4004 7.78359 16.5797 7.62539C16.7062 7.50938 16.7273 7.44609 16.7273 7.27734C16.7273 7.07695 16.7063 7.04531 16.2527 6.5918C15.7992 6.13828 15.7676 6.11719 15.5672 6.11719C15.3984 6.11719 15.3352 6.13828 15.2191 6.26484Z" fill="currentColor"/>
<path d="M17.318 8.35298C17.1598 8.51118 17.1281 8.70103 17.223 8.90142C17.2969 9.05962 17.9508 9.71353 18.0984 9.78735C18.4465 9.9772 18.8156 9.75571 18.8156 9.36548C18.8156 9.16509 18.7945 9.13345 18.341 8.67993C17.898 8.23696 17.8453 8.20532 17.666 8.20532C17.5078 8.20532 17.434 8.23696 17.318 8.35298Z" fill="currentColor"/>
<path d="M19.5223 10.3464C19.3113 10.4519 19.2059 10.7789 19.3113 10.9898C19.3852 11.148 20.0391 11.8019 20.1867 11.8757C20.5031 12.0445 20.8617 11.8863 20.925 11.5382C20.9672 11.3378 20.8617 11.1796 20.3766 10.7156C20.0074 10.357 19.9125 10.2937 19.7754 10.2937C19.691 10.3042 19.575 10.3253 19.5223 10.3464Z" fill="currentColor"/>
</svg>
