<svg width="14" height="14" viewBox="0 0 14 14" fill="none" xmlns="http://www.w3.org/2000/svg">
<path d="M1.75 5.25V4.08333C1.75 3.76117 2.01117 3.5 2.33333 3.5H11.6667C11.9888 3.5 12.25 3.76117 12.25 4.08333V5.25M1.75 8.75V9.91667C1.75 10.2388 2.01117 10.5 2.33333 10.5H11.6667C11.9888 10.5 12.25 10.2388 12.25 9.91667V8.75" stroke="white" stroke-linecap="round" stroke-linejoin="round"/>
<path d="M12.25 8.75C11.2835 8.75 10.5 7.9665 10.5 7C10.5 6.0335 11.2835 5.25 12.25 5.25" stroke="white" stroke-linecap="round" stroke-linejoin="round"/>
<path d="M1.75 5.25C2.7165 5.25 3.5 6.0335 3.5 7C3.5 7.9665 2.7165 8.75 1.75 8.75" stroke="white" stroke-linecap="round" stroke-linejoin="round"/>
<path d="M8.16666 3.5V10.5" stroke="white" stroke-linecap="round" stroke-linejoin="round"/>
</svg>
