<svg width="20" height="24" viewBox="0 0 20 24" fill="none" xmlns="http://www.w3.org/2000/svg">
<path d="M19.6751 21.2245C18.7492 19.0296 15.6198 12.1363 15.6198 12.1363C16.7099 10.8503 17.3692 9.18851 17.3692 7.37498C17.3692 3.30844 14.0609 0 9.99432 0C5.92784 0 2.61934 3.30844 2.61934 7.37498C2.61934 9.18851 3.2788 10.8503 4.36866 12.1363L0.305586 21.2862C0.2144 21.4916 0.258359 21.7322 0.416564 21.8919C0.574768 22.0514 0.813968 22.0983 1.02129 22.0095L3.72239 20.845L4.66992 23.6298C4.74236 23.8427 4.93799 23.9894 5.16249 23.9995C5.17079 23.9997 5.17908 24 5.18712 24C5.40235 24 5.59843 23.8734 5.68649 23.6754L9.65374 14.7411C9.76674 14.7464 9.8802 14.7499 9.99438 14.7499C10.1086 14.7499 10.2218 14.7464 10.335 14.7411L14.3023 23.6754C14.3903 23.8732 14.5863 24 14.8016 24C14.8097 24 14.8178 23.9997 14.8261 23.9995C15.0508 23.9894 15.2463 23.8427 15.3188 23.6298L16.2664 20.845L18.9487 21.991C19.0185 22.021 19.0919 22.0357 19.1648 22.0357C19.167 22.0357 19.1696 22.0357 19.1704 22.0357C19.4724 22.0357 19.7186 21.8167 19.7405 21.5098C19.7454 21.4389 19.7296 21.3534 19.6751 21.2245ZM5.25459 21.956L4.56632 19.9332C4.51733 19.7889 4.41001 19.6718 4.27088 19.6099C4.20046 19.5788 4.12469 19.563 4.04912 19.563C3.9755 19.563 3.90189 19.5779 3.83278 19.6075L1.87091 20.4535L5.19509 12.9677C6.13059 13.7715 7.26748 14.3462 8.52038 14.6019L5.25459 21.956ZM3.71187 7.37498C3.71187 3.91075 6.53009 1.09254 9.99432 1.09254C13.4584 1.09254 16.2766 3.91075 16.2766 7.37498C16.2766 10.8391 13.4583 13.6573 9.99432 13.6573C6.53009 13.6573 3.71187 10.8391 3.71187 7.37498ZM16.1558 19.6075C16.0159 19.5478 15.857 19.5487 15.7178 19.6099C15.5785 19.6718 15.4714 19.7889 15.4222 19.9332L14.7341 21.956L11.4684 14.6019C12.7212 14.3463 13.8582 13.7715 14.7935 12.9677L18.1177 20.4535L16.1558 19.6075Z" fill="currentColor"/>
<path d="M9.99431 2.4585C7.28342 2.4585 5.07764 4.66434 5.07764 7.37517C5.07764 10.086 7.28348 12.2918 9.99431 12.2918C12.7051 12.2918 14.9109 10.0861 14.9109 7.37517C14.9109 4.66427 12.7052 2.4585 9.99431 2.4585ZM9.99431 11.1992C7.88573 11.1992 6.17017 9.48375 6.17017 7.37517C6.17017 5.26659 7.88573 3.55116 9.99431 3.55116C12.1029 3.55116 13.8183 5.26659 13.8183 7.37517C13.8183 9.48375 12.1029 11.1992 9.99431 11.1992Z" fill="currentColor"/>
</svg>
